<svg xmlns="http://www.w3.org/2000/svg" viewBox="0 0 800 520" width="800" height="520">
<defs>
 <filter id="grain"><feTurbulence type="fractalNoise" baseFrequency=".9" numOctaves="2" stitchTiles="stitch"/><feColorMatrix values="0 0 0 0 0  0 0 0 0 0  0 0 0 0 0  0 0 0 .18 0"/><feComposite in2="SourceGraphic" operator="in"/></filter>
 <filter id="ds" x="-20%" y="-20%" width="140%" height="140%"><feDropShadow dx="6" dy="10" stdDeviation="6" flood-color="#000" flood-opacity=".35"/></filter>
</defs>
<rect width="800" height="520" fill="#0b1214"/>
<polygon points="0,0 360,0 230,520 0,520" fill="#134e4a"/>
<polygon points="360,0 800,0 800,300 560,230" fill="#14b8a6"/>
<polygon points="230,520 560,230 800,300 800,520" fill="#f5b942"/>
<polygon points="0,330 180,280 230,520 0,520" fill="#ef6f51"/>
<circle cx="330" cy="260" r="210" fill="none" stroke="#e7f5f2" stroke-width="3" stroke-dasharray="10 12" opacity=".45"/>
<g transform="translate(600 120)" filter="url(#ds)"><circle r="66" fill="#ef6f51"/><circle r="66" fill="none" stroke="#0b1214" stroke-width="3" opacity=".3"/><circle r="56" fill="none" stroke="#0b1214" stroke-width="2" opacity=".25"/><circle r="48" fill="none" stroke="#0b1214" stroke-width="2" opacity=".25"/><circle r="40" fill="none" stroke="#0b1214" stroke-width="2" opacity=".25"/><circle r="26" fill="#e7f5f2"/><circle r="10" fill="#0b1214"/></g>
<path d="M548 150 C470 60 330 60 305 168" fill="none" stroke="#e7f5f2" stroke-width="6" stroke-linecap="round"/>
<g filter="url(#ds)"><rect x="150" y="400" width="340" height="56" rx="12" fill="#0b1214"/><rect x="380" y="414" width="70" height="28" rx="5" fill="#14b8a6"/><rect x="460" y="80" width="36" height="330" rx="6" fill="#e7f5f2"/><rect x="176" y="208" width="300" height="24" rx="6" fill="#e7f5f2"/><rect x="178" y="384" width="260" height="16" rx="4" fill="#134e4a" stroke="#e7f5f2" stroke-width="3"/><rect x="272" y="368" width="64" height="12" fill="#14b8a6" opacity="1"/><rect x="272" y="356" width="64" height="12" fill="#14b8a6" opacity="0.75"/><rect x="272" y="344" width="64" height="12" fill="#14b8a6" opacity="1"/><rect x="272" y="332" width="64" height="12" fill="#14b8a6" opacity="0.75"/><rect x="272" y="320" width="64" height="12" fill="#14b8a6" opacity="1"/><rect x="272" y="308" width="64" height="12" fill="#14b8a6" opacity="0.75"/><rect x="272" y="296" width="40" height="12" fill="#14b8a6" opacity="1"/><rect x="272" y="296" width="64" height="88" fill="none" stroke="#e7f5f2" stroke-width="2" stroke-dasharray="4 4" opacity=".7"/><rect x="266" y="168" width="78" height="96" rx="12" fill="#f5b942"/><circle cx="305" cy="210" r="22" fill="#0b1214"/><circle cx="305" cy="210" r="7" fill="#f5b942"/><path d="M296 264 H314 L307 282 H303Z" fill="#ef6f51"/></g>
<g stroke="#e7f5f2" stroke-width="3" fill="#e7f5f2"><path d="M272 470 V490 M336 470 V490 M280 482 H328"/><path d="M272 482 l10 -6 v12z M336 482 l-10 -6 v12z" stroke="none"/></g>
<g fill="none" stroke="#0b1214" stroke-width="4" stroke-linejoin="round" filter="url(#ds)"><polygon points="620,340 700,300 760,340 680,380"/><path d="M620 340 V430 L680 470 V380 M680 470 L760 430 V340"/><path d="M620 430 L700 390 L760 430 M700 300 V390" stroke-dasharray="6 6" opacity=".6"/></g>
<rect width="800" height="520" filter="url(#grain)"/>
</svg>