<svg xmlns="http://www.w3.org/2000/svg" viewBox="0 0 1200 380" width="1200" height="380">
<defs>
 <filter id="grain"><feTurbulence type="fractalNoise" baseFrequency=".9" numOctaves="2" stitchTiles="stitch"/><feColorMatrix values="0 0 0 0 0  0 0 0 0 0  0 0 0 0 0  0 0 0 .18 0"/><feComposite in2="SourceGraphic" operator="in"/></filter>
 <filter id="ds" x="-20%" y="-20%" width="140%" height="140%"><feDropShadow dx="6" dy="10" stdDeviation="6" flood-color="#000" flood-opacity=".35"/></filter>
</defs>
<rect width="1200" height="380" fill="#0b1214"/>
<polygon points="0,0 420,0 300,380 0,380" fill="#134e4a"/>
<polygon points="420,0 820,0 700,380 300,380" fill="#f5b942"/>
<polygon points="820,0 1200,0 1200,380 700,380" fill="#14b8a6"/>
<polygon points="560,250 900,190 960,380 520,380" fill="#134e4a"/>
<g filter="url(#ds)"><rect x="520" y="130" width="190" height="200" rx="22" fill="#e7f5f2"/><rect x="540" y="150" width="150" height="70" rx="10" fill="#0b1214"/><path d="M552 205 h126" stroke="#14b8a6" stroke-width="6" stroke-linecap="round"/><circle cx="668" cy="170" r="7" fill="#14b8a6"/><rect x="505" y="300" width="220" height="30" rx="10" fill="#0b1214"/><path d="M560 318 l10 -8 l10 16 l10 -16 l10 16 l10 -16 l10 8" fill="none" stroke="#f5b942" stroke-width="4" stroke-linejoin="round"/><path d="M560 262 H670 L656 300 H574Z" fill="#ef6f51"/><ellipse cx="615" cy="262" rx="55" ry="10" fill="#7a2e1b" opacity=".5"/></g>
<path d="M760 70 L520 190 L700 330 Z" fill="#e7f5f2" opacity=".12"/>
<g filter="url(#ds)"><rect x="738" y="46" width="76" height="52" rx="14" fill="#e7f5f2"/><circle cx="762" cy="72" r="16" fill="#0b1214"/><circle cx="762" cy="72" r="6" fill="#14b8a6"/><rect x="770" y="98" width="12" height="30" fill="#e7f5f2"/></g>
<g transform="translate(440 335) scale(0.9 0.9)" filter="url(#ds)"><path d="M40 0 C90 40 110 50 118 -10 C124 -40 110 -60 96 -52" fill="none" stroke="#0b1214" stroke-width="24" stroke-linecap="round"/><path d="M-40 0 C-50 -60 -30 -120 10 -130 C50 -120 62 -60 50 0 Z" fill="#0b1214"/><rect x="-44" y="-14" width="96" height="16" rx="8" fill="#0b1214"/><circle cx="-4" cy="-150" r="42" fill="#0b1214"/><path d="M-40 -170 L-36 -214 L-10 -186Z M30 -172 L28 -214 L2 -188Z" fill="#0b1214"/><path d="M-36 -214 l-1 -7 M28 -214 l1 -7" stroke="#0b1214" stroke-width="4" stroke-linecap="round"/><ellipse cx="-22" cy="-152" rx="6" ry="9" fill="#f5b942"/><ellipse cx="12" cy="-152" rx="6" ry="9" fill="#f5b942"/><circle cx="-19" cy="-155" r="2.2" fill="#fff" opacity=".85"/><circle cx="15" cy="-155" r="2.2" fill="#fff" opacity=".85"/><path d="M-9 -138 h8 l-4 5z" fill="#f4a6a6"/><path d="M-5 -133 q-5 6 -10 2 M-5 -133 q5 6 10 2" stroke="#f5b942" stroke-width="2" fill="none" stroke-linecap="round"/></g>
<g transform="translate(930 335) scale(-0.8 0.8)" filter="url(#ds)"><path d="M40 0 C90 40 110 50 118 -10 C124 -40 110 -60 96 -52" fill="none" stroke="#f0883e" stroke-width="24" stroke-linecap="round"/><path d="M-40 0 C-50 -60 -30 -120 10 -130 C50 -120 62 -60 50 0 Z" fill="#f0883e"/><rect x="-44" y="-14" width="96" height="16" rx="8" fill="#f0883e"/><circle cx="-4" cy="-150" r="42" fill="#f0883e"/><path d="M-40 -170 L-36 -214 L-10 -186Z M30 -172 L28 -214 L2 -188Z" fill="#f0883e"/><path d="M-36 -214 l-1 -7 M28 -214 l1 -7" stroke="#f0883e" stroke-width="4" stroke-linecap="round"/><path d="M-30 -90 q12 6 22 0 M-34 -60 q14 6 26 0 M-36 -30 q16 6 30 0 M-16 -182 l-4 -9 M-4 -185 v-10 M8 -182 l4 -9" stroke="#b85a1f" stroke-width="5" stroke-linecap="round" fill="none" opacity=".7"/><ellipse cx="-22" cy="-152" rx="6" ry="9" fill="#0b1214"/><ellipse cx="12" cy="-152" rx="6" ry="9" fill="#0b1214"/><circle cx="-19" cy="-155" r="2.2" fill="#fff" opacity=".85"/><circle cx="15" cy="-155" r="2.2" fill="#fff" opacity=".85"/><path d="M-9 -138 h8 l-4 5z" fill="#f4a6a6"/><path d="M-5 -133 q-5 6 -10 2 M-5 -133 q5 6 10 2" stroke="#0b1214" stroke-width="2" fill="none" stroke-linecap="round"/></g>
<g filter="url(#ds)"><circle cx="400" cy="92" r="24" fill="#14b8a6"/><path d="M388 92 l8 8 l16 -16" fill="none" stroke="#e7f5f2" stroke-width="6" stroke-linecap="round" stroke-linejoin="round"/></g>
<g filter="url(#ds)"><circle cx="1000" cy="110" r="24" fill="#ef6f51"/><path d="M990 100 l20 20 M1010 100 l-20 20" stroke="#e7f5f2" stroke-width="6" stroke-linecap="round"/></g>
<path d="M814 72 C900 60 980 80 1000 86" fill="none" stroke="#e7f5f2" stroke-width="4" stroke-dasharray="4 12" stroke-linecap="round"/>
<rect width="1200" height="380" filter="url(#grain)"/>
</svg>